PathFileType	4	(X/Y/Z)	/Users/itak/Documents/Research/Walk-IL/dataset/trc/00431_00167.trc
DataRate	CameraRate	NumFrames	NumMarkers	Units	OrigDataRate	OrigDataStartFrame	OrigNumFrames
100.000000	100.000000	4	54	mm	100.000000	336	673
Frame#	Time	RPSI			LPSI			L3			STRN			T10			C7			CLAV			RBAK			LBAK			LSHO			LUPA			LAEL			LAOL			LWTS			LWPS			LFRA			LIFD			LHPS			LHTS			RSHO			RUPA			RAEL			RAOL			RWTS			RWPS			RFRA			RIFD			RHTS			RHPS			RBHD			LFHD			RFHD			LBHD			LHIP			RHIP			RASI			LASI			LKNE			LTHI			LANK			LTIP			LTOE			LMT1			LMT5			LHEE			RKNE			RTHI			RANK			RTIP			RTOE			RMT1			RMT5			RHEE			*53			
		X1	Y1	Z1	X2	Y2	Z2	X3	Y3	Z3	X4	Y4	Z4	X5	Y5	Z5	X6	Y6	Z6	X7	Y7	Z7	X8	Y8	Z8	X9	Y9	Z9	X10	Y10	Z10	X11	Y11	Z11	X12	Y12	Z12	X13	Y13	Z13	X14	Y14	Z14	X15	Y15	Z15	X16	Y16	Z16	X17	Y17	Z17	X18	Y18	Z18	X19	Y19	Z19	X20	Y20	Z20	X21	Y21	Z21	X22	Y22	Z22	X23	Y23	Z23	X24	Y24	Z24	X25	Y25	Z25	X26	Y26	Z26	X27	Y27	Z27	X28	Y28	Z28	X29	Y29	Z29	X30	Y30	Z30	X31	Y31	Z31	X32	Y32	Z32	X33	Y33	Z33	X34	Y34	Z34	X35	Y35	Z35	X36	Y36	Z36	X37	Y37	Z37	X38	Y38	Z38	X39	Y39	Z39	X40	Y40	Z40	X41	Y41	Z41	X42	Y42	Z42	X43	Y43	Z43	X44	Y44	Z44	X45	Y45	Z45	X46	Y46	Z46	X47	Y47	Z47	X48	Y48	Z48	X49	Y49	Z49	X50	Y50	Z50	X51	Y51	Z51	X52	Y52	Z52	X53	Y53	Z53	X54	Y54	Z54	

337	3.36	-56.4803466796875	950.09521484375	199.1627807617188	41.26435852050781	947.364013671875	94.58409881591797	-10.71611309051514	1046.919555664062	172.1471862792969	205.3671112060547	1241.309936523438	329.2859802246094	-27.38395690917969	1169.75439453125	159.8122100830078	13.42110061645508	1438.703491210938	208.3162078857422	176.2921752929688	1354.5849609375	302.8670043945312	-90.15117645263672	1318.425659179688	249.4110717773438	43.46775817871094	1391.0849609375	109.2739486694336	171.4841156005859	1412.429565429688	102.834098815918	221.2732849121094	1299.507202148438	12.18410587310791	280.1981811523438	1096.822631835938	-15.15478706359863	184.6917419433594	1059.904052734375	-1.125195264816284	381.083984375	935.3690185546875	91.19115447998047	375.3530578613281	903.8748779296875	24.5710506439209	325.3857727050781	1020.060546875	-1.170466423034668	444.4246520996094	781.8040161132812	119.3792037963867	408.339599609375	832.4878540039062	42.55036926269531	429.7059020996094	859.9268188476562	104.1911544799805	-18.8141040802002	1409.998046875	379.6421813964844	-78.26780700683594	1350.816650390625	432.3077392578125	-118.4728927612305	1071.363647460938	492.6177062988281	-134.8878631591797	1044.685546875	430.8675842285156	15.30665588378906	896.5414428710938	549.32958984375	-68.91666412353516	867.3840942382812	554.5999145507812	-114.2359008789062	1014.882507324219	510.6351013183594	38.05960083007812	743.7703857421875	587.9254760742188	33.82799911499023	804.535888671875	589.4190673828125	-39.2545051574707	788.5984497070312	580.9470825195312	52.23775863647461	1641.452026367188	323.7252807617188	248.3079376220703	1641.365600585938	257.4208068847656	182.1204223632812	1648.929443359375	370.0428771972656	129.0347595214844	1637.103149414062	162.0870513916016	226.2184753417969	841.59033203125	112.110595703125	-69.96200561523438	846.3059692382812	382.2695007324219	49.03522491455078	884.916259765625	406.0323181152344	234.3506774902344	888.1803588867188	232.0089111328125	257.0470275878906	427.4778137207031	244.9262084960938	273.7670288085938	581.1580200195312	207.9176635742188	156.2007293701172	31.97689628601074	185.2275085449219	239.4946746826172	268.0567932128906	233.3263549804688	255.8239440917969	37.87000274658203	397.5218811035156	187.3978424072266	42.67264556884766	360.7131958007812	270.2268981933594	42.53377532958984	282.4296264648438	84.65882873535156	34.21361541748047	178.0785980224609	-61.23291015625	466.2104797363281	417.6371459960938	-47.73038101196289	715.7846069335938	429.0379638671875	-322.763916015625	226.5598602294922	170.9257507324219	-149.9659881591797	366.5789184570312	356.1834716796875	-210.0706024169922	45.54001617431641	195.8729858398438	-209.1603698730469	103.740966796875	153.0986022949219	-292.2414245605469	107.1409072875977	216.8508911132812	-316.4949340820312	286.1606750488281	117.3649368286133	nan	nan	nan	
338	3.37	-51.89280319213867	950.845947265625	202.8751373291016	45.17681884765625	948.332275390625	97.59001922607422	-5.954092979431152	1048.140258789062	175.0495147705078	210.2797546386719	1242.487426757812	332.0313110351562	-22.25776290893555	1171.003173828125	162.4677124023438	18.50457382202148	1439.966430664062	211.1554107666016	181.1280670166016	1355.83447265625	305.9453430175781	-85.13716888427734	1319.5	251.9633636474609	48.78711700439453	1392.568481445312	112.0401306152344	176.7243194580078	1414.100952148438	106.1344451904297	227.7225036621094	1301.5556640625	15.78328895568848	288.6442565917969	1099.519409179688	-10.80832862854004	193.3321838378906	1061.507934570312	2.366955041885376	390.4249877929688	940.0036010742188	97.42202758789062	385.8647155761719	908.05419921875	30.93063735961914	334.6185607910156	1023.4130859375	4.011794567108154	455.5173034667969	787.4751586914062	127.180534362793	419.6199645996094	837.2412719726562	49.68337249755859	439.9515075683594	865.3079223632812	111.3856735229492	-14.17289543151855	1411.036987304688	382.3296813964844	-73.69635772705078	1351.749633789062	434.8455200195312	-113.0320816040039	1072.529174804688	495.7738952636719	-129.0430908203125	1044.968383789062	434.2672729492188	23.89227867126465	901.0598754882812	554.433837890625	-59.7369384765625	870.3431396484375	560.1007080078125	-107.8259658813477	1016.281799316406	514.3856201171875	49.8565788269043	749.4860229492188	595.5615844726562	44.42934417724609	810.2608642578125	595.9337158203125	-28.6059684753418	792.5899047851562	588.0006713867188	57.68535995483398	1642.603515625	327.6605529785156	253.7460784912109	1642.1728515625	261.26904296875	187.6360626220703	1649.552734375	373.9078369140625	134.4363555908203	1638.602661132812	165.9402008056641	229.9906921386719	842.1943969726562	113.5694351196289	-63.33851623535156	847.4944458007812	386.7750549316406	55.6358757019043	886.6048583984375	408.6936950683594	239.6686706542969	888.9636840820312	233.3204040527344	258.0552978515625	427.1961975097656	244.0423736572266	275.7114562988281	580.9237060546875	207.7184295654297	156.2100219726562	31.92746543884277	185.1826171875	240.0252838134766	267.8118896484375	232.6928558349609	255.8933258056641	37.89230728149414	397.3521423339844	187.5167846679688	42.78778839111328	360.6167907714844	270.3623657226562	42.4190673828125	282.2557067871094	84.63820648193359	34.21697998046875	178.0763549804688	-48.35388565063477	467.7843627929688	426.3375244140625	-39.30221557617188	717.4962158203125	434.7463989257812	-307.4873657226562	225.8834838867188	179.9749755859375	-136.2476348876953	367.9765014648438	364.6739807128906	-190.0485229492188	48.5951042175293	208.1163177490234	-191.1839752197266	105.6705856323242	164.0153198242188	-273.7787170410156	108.3438491821289	228.3243865966797	-303.0035095214844	284.8880004882812	125.3974685668945	nan	nan	nan	
339	3.38	-47.37800979614258	951.5734252929688	206.5902862548828	49.03119659423828	949.29345703125	100.6133422851562	-1.310165882110596	1049.314697265625	177.9386901855469	215.1349792480469	1243.630737304688	334.7091979980469	-17.2225399017334	1172.231567382812	165.1226654052734	23.48131370544434	1441.187744140625	213.9824981689453	185.8957214355469	1357.05029296875	308.9595031738281	-80.21149444580078	1320.54345703125	254.5350952148438	53.97278594970703	1394.007446289062	114.7763137817383	181.8209228515625	1415.733154296875	109.3697052001953	233.9889831542969	1303.557373046875	19.31564331054688	296.863037109375	1102.147827148438	-6.482204914093018	201.6830444335938	1063.113647460938	5.824440956115723	399.2831420898438	944.3851318359375	103.57763671875	395.9393920898438	912.07080078125	37.19195556640625	343.5323181152344	1026.664794921875	9.146240234375	465.8360900878906	792.790771484375	134.8495483398438	430.3375244140625	841.7774047851562	56.70122909545898	449.5598754882812	870.3563232421875	118.5092544555664	-9.56383228302002	1412.03759765625	385.0111694335938	-69.14999389648438	1352.659790039062	437.3965759277344	-107.7229156494141	1073.673583984375	498.8669128417969	-123.3777008056641	1045.298828125	437.6152038574219	32.1676139831543	905.3920288085938	559.2176513671875	-50.8665657043457	873.2808837890625	565.3749389648438	-101.5938110351562	1017.679626464844	518.0411376953125	61.04476547241211	754.973388671875	602.5430297851562	54.54911422729492	815.73095703125	601.9148559570312	-18.4222469329834	796.5179443359375	594.6466064453125	63.02777481079102	1643.695922851562	331.5702514648438	259.0679321289062	1642.941528320312	265.104248046875	193.0405731201172	1650.127075195312	377.7510070800781	139.7323608398438	1640.083862304688	169.7646789550781	233.6801452636719	842.818603515625	115.0796890258789	-56.78243637084961	848.7122802734375	391.2918090820312	62.14578628540039	888.278564453125	411.3203125	244.8736114501953	889.7177734375	234.6096343994141	258.9832153320312	426.9488830566406	243.0272064208984	277.5400085449219	580.7296752929688	207.4217834472656	156.2346496582031	31.87098503112793	185.1278381347656	240.5050506591797	267.5924072265625	231.9368133544922	255.97021484375	37.91471862792969	397.1858215332031	187.6654968261719	42.9332275390625	360.5038452148438	270.5513916015625	42.25170516967773	282.056396484375	84.62058258056641	34.22647857666016	178.0762176513672	-35.44950485229492	469.4427185058594	434.9511413574219	-30.93376350402832	719.2767944335938	440.480224609375	-291.9949035644531	224.5384521484375	189.2679138183594	-122.4007415771484	369.1345825195312	373.3034973144531	-169.8709106445312	51.21852111816406	220.3626556396484	-172.9536590576172	107.1892013549805	175.0177001953125	-255.2102355957031	108.8878326416016	239.754638671875	-289.2059020996094	282.9700317382812	133.7947540283203	nan	nan	nan	
340	3.39	-42.92107772827148	952.2766723632812	210.2911529541016	52.85576629638672	950.2521362304688	103.6584625244141	3.244597673416138	1050.439331054688	180.8090057373047	219.9359283447266	1244.731567382812	337.3284301757812	-12.27171611785889	1173.423583984375	167.7738342285156	28.35771942138672	1442.359008789062	216.8062133789062	190.603759765625	1358.219116210938	311.9124755859375	-75.36124420166016	1321.551879882812	257.1284484863281	59.03556823730469	1395.392700195312	117.4882125854492	186.7883911132812	1417.317138671875	112.5411911010742	240.0715026855469	1305.500244140625	22.77543067932129	304.8372192382812	1104.6904296875	-2.188764572143555	209.7421875	1064.717407226562	9.226154327392578	407.6709899902344	948.5009155273438	109.641242980957	405.566162109375	915.9029541015625	43.34093475341797	352.1178588867188	1029.79638671875	14.21937274932861	475.41748046875	797.7369384765625	142.3715972900391	440.4930725097656	846.0719604492188	63.58903121948242	458.5521850585938	875.0634155273438	125.535530090332	-4.973529815673828	1412.9970703125	387.6891174316406	-64.61021423339844	1353.549194335938	439.9657287597656	-102.5327377319336	1074.797973632812	501.9129333496094	-117.8943405151367	1045.684814453125	440.9232788085938	40.12186431884766	909.5015869140625	563.69189453125	-42.32063674926758	876.15380859375	570.3988647460938	-95.53821563720703	1019.070678710938	521.6090087890625	71.63755798339844	760.1734619140625	608.8805541992188	64.17213439941406	820.8822021484375	607.3942260742188	-8.690793037414551	800.3216552734375	600.8406372070312	68.27162933349609	1644.7177734375	335.4429016113281	264.2765808105469	1643.670288085938	268.9229736328125	198.3376312255859	1650.648559570312	381.5717468261719	144.9287109375	1641.531860351562	173.5576477050781	237.2667846679688	843.4517211914062	116.6375045776367	-50.29547119140625	849.94140625	395.8008117675781	68.54398345947266	889.9212646484375	413.9204406738281	249.9666137695312	890.4312744140625	235.8945465087891	259.8399047851562	426.7347717285156	241.9053955078125	279.2612915039062	580.5767822265625	207.0421142578125	156.2733917236328	31.81015968322754	185.0644836425781	240.9421081542969	267.4040832519531	231.0726165771484	256.0571594238281	37.93747711181641	397.0288696289062	187.8441925048828	43.10694122314453	360.3758544921875	270.7938842773438	42.03153991699219	281.8360290527344	84.60394287109375	34.23968505859375	178.083984375	-22.55180740356445	471.1531982421875	443.4931335449219	-22.61722373962402	721.1080932617188	446.2314758300781	-276.3156127929688	222.5515747070312	198.7751617431641	-108.4577026367188	370.0259094238281	382.0647277832031	-149.6319274902344	53.36685180664062	232.7352600097656	-154.5086212158203	108.2489929199219	186.1756439208984	-236.5834503173828	108.8317413330078	251.2091827392578	-275.1157836914062	280.3883361816406	142.4830017089844	nan	nan	nan	
